<?xml version="1.0" encoding="UTF-8" standalone="no"?>
<svg
   xmlns:dc="http://purl.org/dc/elements/1.1/"
   xmlns:cc="http://creativecommons.org/ns#"
   xmlns:rdf="http://www.w3.org/1999/02/22-rdf-syntax-ns#"
   xmlns:svg="http://www.w3.org/2000/svg"
   xmlns="http://www.w3.org/2000/svg"
   xmlns:sodipodi="http://sodipodi.sourceforge.net/DTD/sodipodi-0.dtd"
   xmlns:inkscape="http://www.inkscape.org/namespaces/inkscape"
   class="thumb"
   width="1000"
   height="1000"
   viewBox="0,0,600,600"
   version="1.1"
   id="svg121"
   sodipodi:docname="noBackground.svg"
   inkscape:export-filename="/home/davidg/Projects/headline-archive/public/logo-horizontal.png"
   inkscape:export-xdpi="96"
   inkscape:export-ydpi="96"
   inkscape:version="0.92.3 (2405546, 2018-03-11)">
  <metadata
     id="metadata125">
    <rdf:RDF>
      <cc:Work
         rdf:about="">
        <dc:format>image/svg+xml</dc:format>
        <dc:type
           rdf:resource="http://purl.org/dc/dcmitype/StillImage" />
      </cc:Work>
    </rdf:RDF>
  </metadata>
  <sodipodi:namedview
     pagecolor="#ffffff"
     bordercolor="#666666"
     borderopacity="1"
     objecttolerance="10"
     gridtolerance="10"
     guidetolerance="10"
     inkscape:pageopacity="0"
     inkscape:pageshadow="2"
     inkscape:window-width="3692"
     inkscape:window-height="2114"
     id="namedview123"
     showgrid="false"
     inkscape:zoom="0.944"
     inkscape:cx="365.00054"
     inkscape:cy="767.54186"
     inkscape:window-x="148"
     inkscape:window-y="46"
     inkscape:window-maximized="1"
     inkscape:current-layer="g119" />
  <defs
     id="defs2" />
  <g
     transform="matrix(1.4341,0,0,1.4341,-89.1053,45.8433)"
     id="g119">
    <g
       transform="matrix(6.5056342,0,0,6.5056342,47.081041,67.473285)"
       id="g19"
       inkscape:export-xdpi="65.430153"
       inkscape:export-ydpi="65.430153">
      <svg
         width="22.000681"
         height="20.756399"
         viewBox="4.9996617 1015.9836 22.00068 20.7564"
         version="1.1"
         id="svg17">
        <defs
           id="defs9">
          <linearGradient
             x1="9.4670753"
             y1="1084.1014"
             x2="20.828594"
             y2="1084.1014"
             id="linearGradientSkbwvy8ue4"
             gradientTransform="scale(1.0562567,0.94673959)"
             gradientUnits="userSpaceOnUse">
            <stop
               offset="0%"
               stop-color="#cc3d3d"
               id="stop4" />
            <stop
               offset="100%"
               stop-color="#cc3d3d"
               id="stop6" />
          </linearGradient>
        </defs>
        <g
           id="g11" />
        <g
           id="g15">
          <path
             d="m 10.3646,1031.7273 c -0.3187,-0.6918 -0.4258,-1.4958 -0.3325,-2.2471 0.1421,-1.1438 1.2689,-2.0598 1.3299,-3.21 0.041,-0.7778 -0.665,-2.2472 -0.665,-2.2472 0,0 1.5712,1.8073 1.9949,2.8891 0.2189,0.5589 -0.1116,1.2894 0.2492,1.7756 0.1441,0.1941 0.4238,0.3759 0.665,0.3207 0.5393,-0.1233 0.9314,-0.7527 0.9974,-1.2838 0.1004,-0.8092 -0.8965,-1.4379 -0.9974,-2.2471 -0.081,-0.6462 0.067,-1.3277 0.3325,-1.926 0.4359,-0.9838 1.9948,-2.5679 1.9948,-2.5679 0,0 -0.7268,1.6875 -0.665,2.5679 0.04,0.5751 0.2308,1.2096 0.665,1.6049 0.255,0.2323 0.6839,0.4725 0.9974,0.3211 0.3135,-0.1513 0.3107,-0.6254 0.3325,-0.9629 0.035,-0.5445 -0.3325,-1.6052 -0.3325,-1.6052 0,0 1.4136,0.9858 1.9948,1.6052 1.614,1.7194 -0.3679,3.9922 0,5.136 0.1379,0.3622 0.5987,0.618 0.9975,0.642 0.2473,0.016 0.5099,-0.1343 0.6649,-0.3211 0.2859,-0.344 0.3325,-1.2837 0.3325,-1.2837 0.451,0.604 0.7628,1.1421 0.9312,1.6676 0.084,0.2627 0.1325,0.5225 0.1445,0.7856 0.01,0.1317 0,0.2641 -0.01,0.3985 0,0.034 -0.043,0.1664 -0.044,0.2005"
             style="fill:url(#linearGradientSkbwvy8ue4);fill-rule:evenodd;stroke:none"
             id="path13"
             inkscape:connector-curvature="0" />
        </g>
      </svg>
    </g>
    <g
       transform="matrix(0.51119106,0,0,0.51119106,103.76055,147.96241)"
       id="g36"
       inkscape:export-xdpi="65.430153"
       inkscape:export-ydpi="65.430153">
      <svg
         width="52.240883"
         height="61.748001"
         viewBox="21.282547 0 52.240883 61.748"
         version="1.1"
         id="svg34">
        <defs
           id="defs26">
          <linearGradient
             x1="29.090269"
             y1="27.894117"
             x2="75.843681"
             y2="27.894117"
             id="linearGradientSkbwvy8uea"
             gradientTransform="scale(0.90348243,1.1068284)"
             gradientUnits="userSpaceOnUse">
            <stop
               offset="0%"
               stop-color="#ffffff"
               id="stop21" />
            <stop
               offset="100%"
               stop-color="#ffffff"
               id="stop23" />
          </linearGradient>
        </defs>
        <g
           id="g28" />
        <g
           id="g32">
          <path
             d="m 30.079,56.748 c 0,0 -6.749,-8.999 -2.25,-20.249 4.501,-11.25 15.751,-11.25 13.5,-24.751 0,0 12.63,9.366 9,20.254 -2.247,6.748 -9,8.999 -9,17.998 C 48.081,38.75 59.331,34.248 59.331,20.752 59.331,11.748 52.579,5 52.579,5 c 0,0 14.054,4.419 15.751,17.998 2.251,18.003 -15.751,20.254 -22.5,33.75 z"
             style="fill:url(#linearGradientSkbwvy8uea);stroke:none"
             id="path30"
             inkscape:connector-curvature="0" />
        </g>
      </svg>
    </g>
    <g
       transform="matrix(0.51119106,0,0,0.51119106,116.57216,163.33004)"
       id="g53"
       inkscape:export-xdpi="65.430153"
       inkscape:export-ydpi="65.430153">
      <svg
         width="33.389305"
         height="32.5"
         viewBox="45.328 29.248 33.389306 32.5"
         version="1.1"
         id="svg51">
        <defs
           id="defs43">
          <linearGradient
             x1="49.361946"
             y1="46.388435"
             x2="72.302292"
             y2="46.388435"
             id="linearGradientSkbwvy8ueg"
             gradientTransform="scale(1.0195708,0.98080482)"
             gradientUnits="userSpaceOnUse">
            <stop
               offset="0%"
               stop-color="#ffffff"
               id="stop38" />
            <stop
               offset="100%"
               stop-color="#ffffff"
               id="stop40" />
          </linearGradient>
        </defs>
        <g
           id="g45" />
        <g
           id="g49">
          <path
             d="m 50.328,56.748 c 6.752,-11.25 18.002,-11.25 22.5,-22.5 0,0 4.501,13.501 -6.749,22.5 z"
             style="fill:url(#linearGradientSkbwvy8ueg);stroke:none"
             id="path47"
             inkscape:connector-curvature="0" />
        </g>
      </svg>
    </g>
    <g
       transform="matrix(6.5056342,0,0,6.5056342,52.791172,140.35986)"
       id="g70"
       inkscape:export-xdpi="65.430153"
       inkscape:export-ydpi="65.430153">
      <svg
         width="20.517878"
         height="13.260475"
         viewBox="5.7411722 1027.7399 20.517878 13.260475"
         version="1.1"
         id="svg68">
        <defs
           id="defs60">
          <linearGradient
             x1="5.98037"
             y1="1857.8029"
             x2="11.836416"
             y2="1857.8029"
             id="linearGradientSkbwvy8uem"
             gradientTransform="scale(1.7960715,0.55677071)"
             gradientUnits="userSpaceOnUse">
            <stop
               offset="0%"
               stop-color="#3b688c"
               id="stop55" />
            <stop
               offset="100%"
               stop-color="#3b688c"
               id="stop57" />
          </linearGradient>
        </defs>
        <g
           id="g62" />
        <g
           id="g66">
          <path
             style="fill:url(#linearGradientSkbwvy8uem);fill-rule:evenodd;stroke:none"
             d="m 11.2165,1032.7406 c -0.6667,0.034 -0.6159,1.0339 0.051,1 h 0.3574 l 0.5157,2.2598 h 7.7265 l 0.5254,-2.2598 h 0.3594 c 0.6762,0.01 0.6762,-1.0096 0,-1 h -9.4844 c -0.017,-9e-4 -0.034,-9e-4 -0.051,0 z"
             id="path64"
             inkscape:connector-curvature="0" />
        </g>
      </svg>
    </g>
    <g
       transform="matrix(6.5056342,0,0,6.5056342,65.802438,164.36658)"
       id="g87"
       inkscape:export-xdpi="65.430153"
       inkscape:export-ydpi="65.430153">
      <svg
         width="16.7833"
         height="11.2621"
         viewBox="7.6072 1031.9886 16.7833 11.2621"
         version="1.1"
         id="svg85">
        <defs
           id="defs77">
          <linearGradient
             x1="5.4380727"
             y1="2405.5359"
             x2="8.3640261"
             y2="2405.5359"
             id="linearGradientSkbwvy8ues"
             gradientTransform="scale(2.3183213,0.43134659)"
             gradientUnits="userSpaceOnUse">
            <stop
               offset="0%"
               stop-color="#3a3e40"
               id="stop72" />
            <stop
               offset="100%"
               stop-color="#3a3e40"
               id="stop74" />
          </linearGradient>
        </defs>
        <g
           id="g79" />
        <g
           id="g83">
          <path
             d="m 12.6072,1036.9886 0.8945,1.2521 v 0.01 h 4.9903 v -0.01 l 0.8985,-1.2521 z"
             style="fill:url(#linearGradientSkbwvy8ues);fill-rule:evenodd;stroke:none"
             id="path81"
             inkscape:connector-curvature="0" />
        </g>
      </svg>
    </g>
    <g
       transform="matrix(0.71611298,0,0,0.71611298,-36.651435,201.22477)"
       id="g102"
       inkscape:export-xdpi="65.430153"
       inkscape:export-ydpi="65.430153">
      <svg
         width="423.70001"
         height="206"
         style="overflow:visible"
         version="1.1"
         id="svg100">
        <defs
           id="defs94">
          <linearGradient
             x1="0.82098496"
             y1="-87.133148"
             x2="181.56731"
             y2="-87.133148"
             id="linearGradientSkbwvy8ue14"
             gradientTransform="matrix(2.3142934,0,0,0.43209733,278.5439,-153.20297)"
             gradientUnits="userSpaceOnUse">
            <stop
               offset="0%"
               stop-color="#3a3e40"
               id="stop89" />
            <stop
               offset="100%"
               stop-color="#3a3e40"
               id="stop91" />
          </linearGradient>
        </defs>
        <g
           transform="translate(0,109.5)"
           id="g98">
          <path
             d="m 332.4439,-195.20296 -2.7,15.6 h -26.6 l -4.6,26.39999 h -18.1 l 12.7,-71.99999 h 50.2 l -2.8,15.6 h -32.2 l -2.5,14.4 z m 54.8,26.6 v 0 q 0,2.6 2.65,2.6 2.65,0 4.45,-1 v 0 l -0.5,11.29999 q -4.8,3.9 -10.8,3.9 v 0 q -11.3,0 -12.3,-8.7 v 0 q -6,8.7 -16.15,8.7 -10.15,0 -13.15,-4.6 v 0 q -2,-2.9 -2,-6.59999 0,-3.7 0.6,-6.8 v 0 l 5.6,-31.5 h 17 l -4.7,26.6 q -0.3,1.8 -0.3,3.6 v 0 q 0,4.8 5.4,4.8 v 0 q 4.5,0 7.2,-3.1 v 0 l 5.7,-31.9 h 17 l -5.6,31.5 q -0.1,0.6 -0.1,1.2 z m 31.9,0 v 0 q 0,2.6 2.65,2.6 2.65,0 4.45,-1 v 0 l -0.5,11.29999 q -4.8,3.9 -10.8,3.9 v 0 q -9.1,0 -11.8,-4.2 v 0 q -1.7,-2.7 -1.7,-5.89999 0,-3.2 0.4,-5.6 v 0 l 10.9,-61.6 h 17 l -10.5,59.3 q -0.1,0.6 -0.1,1.2 z m 31.9,0 v 0 q 0,2.6 2.65,2.6 2.65,0 4.45,-1 v 0 l -0.5,11.29999 q -4.8,3.9 -10.8,3.9 v 0 q -9.1,0 -11.8,-4.2 v 0 q -1.7,-2.7 -1.7,-5.89999 0,-3.2 0.4,-5.6 v 0 l 10.9,-61.6 h 17 l -10.5,59.3 q -0.1,0.6 -0.1,1.2 z m 40.3,-2.1 h 2.3 l 19,-54.5 h 19.5 l -27.3,71.99999 h -32 l -0.8,-71.99999 h 19.6 z m 58.9,4.7 v 0 q 2.3,0 4.1,-1 v 0 l -0.5,11.29999 q -4.7,3.9 -10.7,3.9 v 0 q -9.1,0 -11.8,-4.2 v 0 q -1.8,-2.8 -1.8,-5.94999 0,-3.15 0.4,-5.55 v 0 l 6,-33.8 h 17 l -5.6,31.5 q -0.1,0.6 -0.1,1.1 v 0 q 0,2.7 3,2.7 z m -12.3,-51.6 v 0 q 0,-6.4 2.85,-9.35 2.85,-2.95 8.85,-2.95 v 0 q 8.4,0 8.4,7.4 v 0 q 0,6.3 -2.85,9.2 -2.85,2.9 -8.95,2.9 v 0 q -8.3,0 -8.3,-7.2 z m 42.7,65.79999 v 0 q -20.8,0 -20.8,-14.39999 v 0 q 0,-2 0.4,-4.3 v 0 l 2.1,-12.4 q 1.7,-9.6 8.85,-14.75 7.15,-5.15 18.95,-5.15 v 0 q 20.1,0 20.1,15.2 v 0 q 0,2.2 -0.4,4.8 v 0 l -1.2,7.1 h -30.5 l -0.4,2.3 q -0.2,1.2 -0.2,2.2 v 0 q 0,5.5 6.5,5.5 v 0 q 2.4,0 4.1,-1.5 1.7,-1.5 2,-3.5 v 0 l 16.6,0.2 q -3.3,18.69999 -26.1,18.69999 z m -1.5,-29.99999 h 13.5 q 0.4,-1.7 0.4,-3.15 0,-1.45 -1.3,-2.95 -1.3,-1.5 -4.15,-1.5 -2.85,0 -5.2,1.9 -2.35,1.9 -3.25,5.7 z m 101.2,-19.5 h 17 q 1.4,4.2 1.4,11.15 0,6.95 -1.7,13.35 -1.7,6.4 -5.15,12.15 -3.45,5.74999 -9.6,9.29999 -6.15,3.55 -14.15,3.55 v 0 q -12,0 -16,-6.7 v 0 q -7.2,6.7 -16.1,6.7 v 0 q -12,0 -16.5,-5.1 v 0 q -3,-3.4 -3,-10.09999 v 0 q 0,-3.5 0.8,-7.8 v 0 l 4.7,-26.5 h 17 l -4.7,26.6 q -0.3,1.5 -0.3,2.7 v 0 q 0,5.7 5.9,5.7 v 0 q 4.1,0 6.2,-3.55 2.1,-3.55 3.6,-12.45 v 0 l 3.4,-19 h 17 l -4.7,26.6 q -0.3,1.5 -0.3,2.7 v 0 q 0,5.7 5.9,5.7 v 0 q 10.4,0 10.4,-21.8 v 0 q 0,-5.1 -0.8,-11.3 v 0 z"
             data-textpath="FullView"
             data-text-anchor="middle"
             data-font-size="100"
             data-letterspacing="0"
             data-side="left"
             data-offset="0.5"
             data-dx="0"
             data-dy="0"
             data-xmlspace="preserve"
             data-href=""
             data-font="Fugaz One"
             data-font-src="/Content/clientfonts/fugazone.woff"
             data-font-scale="contain"
             data-x="0"
             data-y="0"
             id="path96"
             style="fill:url(#linearGradientSkbwvy8ue14)"
             inkscape:connector-curvature="0" />
        </g>
      </svg>
    </g>
    <g
       transform="matrix(0.51198657,0,0,0.51198657,-36.861305,268.83531)"
       id="g117"
       inkscape:export-xdpi="65.430153"
       inkscape:export-ydpi="65.430153">
      <svg
         width="219.5"
         height="185"
         style="overflow:visible"
         version="1.1"
         id="svg115">
        <defs
           id="defs109">
          <linearGradient
             x1="1.955462"
             y1="-57.633438"
             x2="121.518"
             y2="-57.633438"
             id="linearGradientSkbwvy8ue17"
             gradientTransform="matrix(1.7898583,0,0,0.55870344,389.59794,-214.2842)"
             gradientUnits="userSpaceOnUse">
            <stop
               offset="0%"
               stop-color="#3a3e40"
               id="stop104" />
            <stop
               offset="100%"
               stop-color="#3a3e40"
               id="stop106" />
          </linearGradient>
        </defs>
        <g
           transform="translate(0,93.75)"
           id="g113">
          <path
             d="m 400.59794,-214.2842 h -7.5 l 13.1,-65.6 h 7.8 l 15,42 4.2,13.7 h 0.4 q 0.6,-4.9 1.25,-10.35 0.65,-5.45 1.75,-10.55 v 0 l 6.9,-34.8 h 7.5 l -13.1,65.6 h -7.7 l -14.8,-41.9 -4.3,-14.1 h -0.4 q -0.6,5.1 -1.35,10.4 -0.75,5.3 -1.75,10.3 v 0 z m 54.6,-19.1 v 0 q 0,-6.9 2.3,-12.55 2.3,-5.65 5.95,-9.7 3.65,-4.05 8.3,-6.25 4.65,-2.2 9.45,-2.2 v 0 q 4.1,0 6.95,1.35 2.85,1.35 4.65,3.7 1.8,2.35 2.6,5.6 0.8,3.25 0.8,6.95 v 0 q 0,2.9 -0.6,5.5 -0.6,2.6 -1.1,4 v 0 h -31.6 q -0.7,4.7 0.1,8.05 0.8,3.35 2.65,5.55 1.85,2.2 4.55,3.2 2.7,1 5.9,1 v 0 q 2.9,0 5.75,-1.25 2.85,-1.25 5.15,-2.95 v 0 l 3,5.1 q -2.9,2.1 -6.9,3.65 -4,1.55 -8.8,1.55 v 0 q -8.7,0 -13.9,-5.25 -5.2,-5.25 -5.2,-15.05 z m 8.5,-8.8 v 0 h 25.5 q 0.2,-1.2 0.35,-2.4 0.15,-1.2 0.15,-2.6 v 0 q 0,-2.1 -0.5,-4.05 -0.5,-1.95 -1.6,-3.45 -1.1,-1.5 -2.9,-2.4 -1.8,-0.9 -4.4,-0.9 v 0 q -2.7,0 -5.25,1.1 -2.55,1.1 -4.75,3.2 -2.2,2.1 -3.95,5 -1.75,2.9 -2.65,6.5 z m 54.2,27.9 h -9.2 l -3.5,-48.6 h 7.6 l 1.6,28.6 q 0.1,3.5 0.15,6.85 0.05,3.35 0.15,6.75 v 0 h 0.4 q 1.5,-3.4 2.85,-6.75 1.35,-3.35 2.95,-6.85 v 0 l 12.8,-28.6 h 7.5 l 1.7,28.6 q 0.2,3.5 0.25,6.85 0.05,3.35 0.25,6.75 v 0 h 0.4 q 1.4,-3.4 2.7,-6.75 1.3,-3.35 2.9,-6.85 v 0 l 12.7,-28.6 h 7.2 l -22.1,48.6 h -9.5 l -1.4,-26.6 q -0.1,-3.5 -0.15,-7.1 -0.05,-3.6 -0.15,-7.2 v 0 h -0.4 q -1.5,3.6 -2.95,7.2 -1.45,3.6 -2.95,7.1 v 0 z m 67.3,1.2 v 0 q -2.4,0 -4.85,-0.7 -2.45,-0.7 -4.7,-1.95 -2.25,-1.25 -4.1,-2.95 -1.85,-1.7 -3.05,-3.6 v 0 l 4.8,-3.8 q 2.3,3.2 5.5,5.15 3.2,1.95 7,1.95 v 0 q 2.1,0 3.95,-0.65 1.85,-0.65 3.3,-1.75 1.45,-1.1 2.25,-2.55 0.8,-1.45 0.8,-3.15 v 0 q 0,-1.3 -0.45,-2.4 -0.45,-1.1 -1.45,-2.15 -1,-1.05 -2.75,-2.15 -1.75,-1.1 -4.25,-2.5 v 0 q -5.7,-3.1 -8.4,-6.1 -2.7,-3 -2.7,-7.2 v 0 q 0,-3.2 1.35,-5.9 1.35,-2.7 3.6,-4.6 2.25,-1.9 5.3,-2.95 3.05,-1.05 6.45,-1.05 v 0 q 4.5,0 8.05,1.8 3.55,1.8 6.25,4.7 v 0 l -4.4,4.3 q -2,-2 -4.4,-3.4 -2.4,-1.4 -5.7,-1.4 v 0 q -3.9,0 -6.55,2.25 -2.65,2.25 -2.65,5.35 v 0 q 0,1.5 0.7,2.7 0.7,1.2 1.9,2.2 1.2,1 2.75,1.9 1.55,0.9 3.25,1.8 v 0 q 3.3,1.8 5.45,3.45 2.15,1.65 3.5,3.3 1.35,1.65 1.9,3.35 0.55,1.7 0.55,3.7 v 0 q 0,3.4 -1.35,6.2 -1.35,2.8 -3.8,4.75 -2.45,1.95 -5.8,3 -3.35,1.05 -7.25,1.05 z"
             data-textpath="News"
             data-text-anchor="middle"
             data-font-size="100"
             data-letterspacing="0"
             data-side="left"
             data-offset="0.5"
             data-dx="0"
             data-dy="0"
             data-xmlspace="preserve"
             data-href=""
             data-font="Source Sans Pro"
             data-font-src="/Content/clientfonts/sourcesanspro-italic.woff"
             data-font-scale="contain"
             data-x="0"
             data-y="0"
             id="path111"
             style="fill:url(#linearGradientSkbwvy8ue17)"
             inkscape:connector-curvature="0" />
        </g>
      </svg>
    </g>
  </g>
</svg>
