<svg class="thumb" width="1000" height="1000" viewBox="0,0,600,600" xmlns="http://www.w3.org/2000/svg" xmlns:inkscape="http://www.inkscape.org/namespaces/inkscape" xmlns:sodipodi="http://sodipodi.sourceforge.net/DTD/sodipodi-0.dtd" xmlns:xlink="http://www.w3.org/1999/xlink" xmlns:ns1="http://www.inkscape.org/namespaces/inkscape" xmlns:sketch="http://www.bohemiancoding.com/sketch/ns">
  <defs></defs>
  <g transform="matrix(1.4341,0,0,1.4341,-89.1053,45.8433)">
    <g transform="matrix(8.178,0,0,8.178,183.0558,0.2198)">
      <svg width="22.000680397905118" height="20.75639999999987" viewBox="4.999661737718611,1015.9835999999999,22.000680397905118,20.75639999999987">
        <defs>
          <linearGradient x1="0" y1="0.5" x2="1" y2="0.5" id="linearGradientSkbwvy8ue4">
            <stop offset="0%" stop-color="#cc3d3d"></stop>
            <stop offset="100%" stop-color="#cc3d3d"></stop>
          </linearGradient>
        </defs>
        <g></g>
        <g>
          <path d="m 10.3646,1031.7273 c -0.3187,-0.6918 -0.4258,-1.4958 -0.3325,-2.2471 0.1421,-1.1438 1.2689,-2.0598 1.3299,-3.21 0.041,-0.7778 -0.665,-2.2472 -0.665,-2.2472 0,0 1.5712,1.8073 1.9949,2.8891 0.2189,0.5589 -0.1116,1.2894 0.2492,1.7756 0.1441,0.1941 0.4238,0.3759 0.665,0.3207 0.5393,-0.1233 0.9314,-0.7527 0.9974,-1.2838 0.1004,-0.8092 -0.8965,-1.4379 -0.9974,-2.2471 -0.081,-0.6462 0.067,-1.3277 0.3325,-1.926 0.4359,-0.9838 1.9948,-2.5679 1.9948,-2.5679 0,0 -0.7268,1.6875 -0.665,2.5679 0.04,0.5751 0.2308,1.2096 0.665,1.6049 0.255,0.2323 0.6839,0.4725 0.9974,0.3211 0.3135,-0.1513 0.3107,-0.6254 0.3325,-0.9629 0.035,-0.5445 -0.3325,-1.6052 -0.3325,-1.6052 0,0 1.4136,0.9858 1.9948,1.6052 1.614,1.7194 -0.3679,3.9922 0,5.136 0.1379,0.3622 0.5987,0.618 0.9975,0.642 0.2473,0.016 0.5099,-0.1343 0.6649,-0.3211 0.2859,-0.344 0.3325,-1.2837 0.3325,-1.2837 0.451,0.604 0.7628,1.1421 0.9312,1.6676 0.084,0.2627 0.1325,0.5225 0.1445,0.7856 0.01,0.1317 0,0.2641 -0.01,0.3985 0,0.034 -0.043,0.1664 -0.044,0.2005" style="" fill="url('#linearGradientSkbwvy8ue4')" fill-rule="evenodd" stroke="none"></path>
        </g>
      </svg>
    </g>
    <g transform="matrix(0.6426,0,0,0.6426,254.3056,101.3998)">
      <svg width="52.240883426613564" height="61.748000000000005" viewBox="21.282546871093075,0,52.240883426613564,61.748000000000005">
        <defs>
          <linearGradient x1="0" y1="0.5" x2="1" y2="0.5" id="linearGradientSkbwvy8uea">
            <stop offset="0%" stop-color="#ffffff"></stop>
            <stop offset="100%" stop-color="#ffffff"></stop>
          </linearGradient>
        </defs>
        <g></g>
        <g>
          <path d="M30.079,56.748c0,0-6.749-8.999-2.25-20.249c4.501-11.25,15.751-11.25,13.5-24.751c0,0,12.63,9.366,9,20.254   c-2.247,6.748-9,8.999-9,17.998c6.752-11.25,18.002-15.752,18.002-29.248C59.331,11.748,52.579,5,52.579,5   S66.633,9.419,68.33,22.998c2.251,18.003-15.751,20.254-22.5,33.75H30.079z" stroke="none" fill="url('#linearGradientSkbwvy8uea')" style=""></path>
        </g>
      </svg>
    </g>
    <g transform="matrix(0.6426,0,0,0.6426,270.4106,120.7179)">
      <svg width="33.38930593913297" height="32.5" viewBox="45.328,29.247999999999998,33.38930593913297,32.5">
        <defs>
          <linearGradient x1="0" y1="0.5" x2="1" y2="0.5" id="linearGradientSkbwvy8ueg">
            <stop offset="0%" stop-color="#ffffff"></stop>
            <stop offset="100%" stop-color="#ffffff"></stop>
          </linearGradient>
        </defs>
        <g></g>
        <g>
          <path d="M50.328,56.748c6.752-11.25,18.002-11.25,22.5-22.5c0,0,4.501,13.501-6.749,22.5H50.328z" stroke="none" fill="url('#linearGradientSkbwvy8ueg')" style=""></path>
        </g>
      </svg>
    </g>
    <g transform="matrix(8.178,0,0,8.178,190.2338,91.8429)">
      <svg width="20.51787781640511" height="13.260475000000042" viewBox="5.741172183594893,1027.739925,20.51787781640511,13.260475000000042">
        <defs>
          <linearGradient x1="0" y1="0.5" x2="1" y2="0.5" id="linearGradientSkbwvy8uem">
            <stop offset="0%" stop-color="#3b688c"></stop>
            <stop offset="100%" stop-color="#3b688c"></stop>
          </linearGradient>
        </defs>
        <g></g>
        <g>
          <path style="" d="m 11.2165,1032.7406 c -0.6667,0.034 -0.6159,1.0339 0.051,1 l 0.3574,0 0.5157,2.2598 7.7265,0 0.5254,-2.2598 0.3594,0 c 0.6762,0.01 0.6762,-1.0096 0,-1 l -9.4844,0 c -0.017,-9e-4 -0.034,-9e-4 -0.051,0 z" fill="url('#linearGradientSkbwvy8uem')" fill-rule="evenodd" stroke="none"></path>
        </g>
      </svg>
    </g>
    <g transform="matrix(8.178,0,0,8.178,206.5898,122.0209)">
      <svg width="16.783299999999997" height="11.262099999999919" viewBox="7.607200000000001,1031.9886,16.783299999999997,11.262099999999919">
        <defs>
          <linearGradient x1="0" y1="0.5" x2="1" y2="0.5" id="linearGradientSkbwvy8ues">
            <stop offset="0%" stop-color="#3a3e40"></stop>
            <stop offset="100%" stop-color="#3a3e40"></stop>
          </linearGradient>
        </defs>
        <g></g>
        <g>
          <path d="m 12.6072,1036.9886 0.8945,1.2521 0,0.01 4.9903,0 0,-0.01 0.8985,-1.2521 z" style="" fill="url('#linearGradientSkbwvy8ues')" fill-rule="evenodd" stroke="none"></path>
        </g>
      </svg>
    </g>
    <g transform="matrix(0.9002,0,0,0.9002,81.3443,159.2684)">
      <svg width="423.70000000000005" height="206" style="overflow: visible;">
        <defs>
          <linearGradient x1="0" y1="0.5" x2="1" y2="0.5" id="linearGradientSkbwvy8ue14">
            <stop offset="0%" stop-color="#3a3e40"></stop>
            <stop offset="100%" stop-color="#3a3e40"></stop>
          </linearGradient>
        </defs>
        <g transform="matrix(1,0,0,1,0,109.5)">
          <path d="M 53.89999999999999-42L 51.2-26.4L 24.599999999999998-26.4L 19.999999999999996 0L 1.8999999999999964 0L 14.599999999999996-72L 64.8-72L 62-56.4L 29.799999999999997-56.4L 27.299999999999997-42L 53.89999999999999-42ZM 108.70000000000002-15.4L 108.70000000000002-15.4Q 108.70000000000002-12.8  111.35000000000001-12.8Q 114.00000000000001-12.8  115.80000000000001-13.8L 115.80000000000001-13.8L 115.30000000000001-2.5Q 110.50000000000001 1.4  104.50000000000001 1.4L 104.50000000000001 1.4Q 93.20000000000002 1.4  92.20000000000002-7.3L 92.20000000000002-7.3Q 86.20000000000002 1.4  76.05000000000001 1.4Q 65.9 1.4  62.90000000000001-3.2L 62.90000000000001-3.2Q 60.90000000000001-6.1  60.90000000000001-9.8Q 60.90000000000001-13.5  61.500000000000014-16.6L 61.500000000000014-16.6L 67.10000000000001-48.1L 84.10000000000001-48.1L 79.4-21.5Q 79.10000000000001-19.7  79.10000000000001-17.9L 79.10000000000001-17.9Q 79.10000000000001-13.1  84.50000000000001-13.1L 84.50000000000001-13.1Q 89.00000000000001-13.1  91.70000000000002-16.2L 91.70000000000002-16.2L 97.4-48.1L 114.4-48.1L 108.80000000000001-16.6Q 108.70000000000002-16  108.70000000000002-15.4ZM 140.6-15.4L 140.6-15.4Q 140.6-12.8  143.25-12.8Q 145.9-12.8  147.7-13.8L 147.7-13.8L 147.2-2.5Q 142.4 1.4  136.4 1.4L 136.4 1.4Q 127.3 1.4  124.6-2.8L 124.6-2.8Q 122.89999999999999-5.5  122.89999999999999-8.7Q 122.89999999999999-11.9  123.3-14.3L 123.3-14.3L 134.2-75.9L 151.2-75.9L 140.7-16.6Q 140.6-16  140.6-15.4ZM 172.5-15.4L 172.5-15.4Q 172.5-12.8  175.14999999999998-12.8Q 177.79999999999998-12.8  179.6-13.8L 179.6-13.8L 179.1-2.5Q 174.29999999999998 1.4  168.29999999999998 1.4L 168.29999999999998 1.4Q 159.2 1.4  156.5-2.8L 156.5-2.8Q 154.79999999999998-5.5  154.79999999999998-8.7Q 154.79999999999998-11.9  155.2-14.3L 155.2-14.3L 166.1-75.9L 183.1-75.9L 172.6-16.6Q 172.5-16  172.5-15.4ZM 212.79999999999995-17.5L 215.09999999999997-17.5L 234.09999999999997-72L 253.59999999999997-72L 226.29999999999995 0L 194.29999999999995 0L 193.49999999999997-72L 213.09999999999997-72L 212.79999999999995-17.5ZM 271.7-12.8L 271.7-12.8Q 274-12.8  275.8-13.8L 275.8-13.8L 275.3-2.5Q 270.6 1.4  264.6 1.4L 264.6 1.4Q 255.5 1.4  252.8-2.8L 252.8-2.8Q 251-5.6  251-8.75Q 251-11.9  251.4-14.3L 251.4-14.3L 257.4-48.1L 274.4-48.1L 268.8-16.6Q 268.7-16  268.7-15.5L 268.7-15.5Q 268.7-12.8  271.7-12.8ZM 259.4-64.4L 259.4-64.4Q 259.4-70.8  262.25-73.75Q 265.1-76.7  271.1-76.7L 271.1-76.7Q 279.5-76.7  279.5-69.3L 279.5-69.3Q 279.5-63  276.65-60.1Q 273.8-57.2  267.7-57.2L 267.7-57.2Q 259.4-57.2  259.4-64.4ZM 302.09999999999997 1.4L 302.09999999999997 1.4Q 281.3 1.4  281.3-13L 281.3-13Q 281.3-15  281.7-17.3L 281.7-17.3L 283.8-29.7Q 285.5-39.3  292.65-44.45Q 299.8-49.6  311.59999999999997-49.6L 311.59999999999997-49.6Q 331.7-49.6  331.7-34.4L 331.7-34.4Q 331.7-32.2  331.3-29.6L 331.3-29.6L 330.09999999999997-22.5L 299.59999999999997-22.5L 299.2-20.2Q 299-19  299-18L 299-18Q 299-12.5  305.5-12.5L 305.5-12.5Q 307.9-12.5  309.59999999999997-14Q 311.3-15.5  311.59999999999997-17.5L 311.59999999999997-17.5L 328.2-17.3Q 324.9 1.4  302.09999999999997 1.4ZM 300.59999999999997-28.6L 314.09999999999997-28.6Q 314.5-30.3  314.5-31.75Q 314.5-33.2  313.2-34.7Q 311.9-36.2  309.05-36.2Q 306.2-36.2  303.84999999999997-34.3Q 301.5-32.4  300.59999999999997-28.6L 300.59999999999997-28.6ZM 401.80000000000007-48.1L 418.80000000000007-48.1Q 420.2000000000001-43.9  420.2000000000001-36.95Q 420.2000000000001-30  418.5000000000001-23.6Q 416.80000000000007-17.2  413.3500000000001-11.45Q 409.9000000000001-5.7  403.7500000000001-2.15Q 397.6000000000001 1.4  389.6000000000001 1.4L 389.6000000000001 1.4Q 377.6000000000001 1.4  373.6000000000001-5.3L 373.6000000000001-5.3Q 366.4000000000001 1.4  357.5000000000001 1.4L 357.5000000000001 1.4Q 345.5000000000001 1.4  341.0000000000001-3.7L 341.0000000000001-3.7Q 338.0000000000001-7.1  338.0000000000001-13.8L 338.0000000000001-13.8Q 338.0000000000001-17.3  338.80000000000007-21.6L 338.80000000000007-21.6L 343.5000000000001-48.1L 360.5000000000001-48.1L 355.80000000000007-21.5Q 355.5000000000001-20  355.5000000000001-18.8L 355.5000000000001-18.8Q 355.5000000000001-13.1  361.4000000000001-13.1L 361.4000000000001-13.1Q 365.5000000000001-13.1  367.6000000000001-16.65Q 369.7000000000001-20.2  371.2000000000001-29.1L 371.2000000000001-29.1L 374.6000000000001-48.1L 391.6000000000001-48.1L 386.9000000000001-21.5Q 386.6000000000001-20  386.6000000000001-18.8L 386.6000000000001-18.8Q 386.6000000000001-13.1  392.5000000000001-13.1L 392.5000000000001-13.1Q 402.9000000000001-13.1  402.9000000000001-34.9L 402.9000000000001-34.9Q 402.9000000000001-40  402.1000000000001-46.2L 402.1000000000001-46.2L 401.80000000000007-48.1Z" data-textpath="FullView" data-text-anchor="middle" data-font-size="100" data-letterspacing="0" data-side="left" data-offset="0.5" data-dx="0" data-dy="0" data-xmlspace="preserve" data-href="" data-font="Fugaz One" data-font-src="/Content/clientfonts/fugazone.woff" data-font-scale="contain" transform="translate(0,0)" data-x="0" data-y="0" fill="url('#linearGradientSkbwvy8ue14')"></path>
        </g>
      </svg>
    </g>
    <g transform="matrix(0.6436,0,0,0.6436,201.4093,252.2368)">
      <svg width="219.5" height="185" style="overflow: visible;">
        <defs>
          <linearGradient x1="0" y1="0.5" x2="1" y2="0.5" id="linearGradientSkbwvy8ue17">
            <stop offset="0%" stop-color="#3a3e40"></stop>
            <stop offset="100%" stop-color="#3a3e40"></stop>
          </linearGradient>
        </defs>
        <g transform="matrix(1,0,0,1,0,93.75)">
          <path d="M 11 0L 3.5 0L 16.6-65.6L 24.4-65.6L 39.4-23.6L 43.6-9.9L 44-9.9Q 44.6-14.8  45.25-20.25Q 45.9-25.7  47-30.8L 47-30.8L 53.9-65.6L 61.4-65.6L 48.3 0L 40.6 0L 25.8-41.9L 21.5-56L 21.1-56Q 20.5-50.9  19.75-45.6Q 19-40.3  18-35.3L 18-35.3L 11 0ZM 65.60000000000002-19.1L 65.60000000000002-19.1Q 65.60000000000002-26  67.90000000000003-31.65Q 70.20000000000003-37.3  73.85000000000002-41.35Q 77.50000000000003-45.4  82.15000000000003-47.6Q 86.80000000000003-49.8  91.60000000000002-49.8L 91.60000000000002-49.8Q 95.70000000000002-49.8  98.55000000000003-48.45Q 101.40000000000003-47.1  103.20000000000002-44.75Q 105.00000000000003-42.4  105.80000000000003-39.15Q 106.60000000000002-35.9  106.60000000000002-32.2L 106.60000000000002-32.2Q 106.60000000000002-29.3  106.00000000000003-26.7Q 105.40000000000003-24.1  104.90000000000003-22.7L 104.90000000000003-22.7L 73.30000000000003-22.7Q 72.60000000000002-18  73.40000000000003-14.65Q 74.20000000000003-11.3  76.05000000000003-9.1Q 77.90000000000003-6.9  80.60000000000002-5.9Q 83.30000000000003-4.9  86.50000000000003-4.9L 86.50000000000003-4.9Q 89.40000000000003-4.9  92.25000000000003-6.15Q 95.10000000000002-7.4  97.40000000000003-9.1L 97.40000000000003-9.1L 100.40000000000003-4Q 97.50000000000003-1.9  93.50000000000003-0.35Q 89.50000000000003 1.2  84.70000000000003 1.2L 84.70000000000003 1.2Q 76.00000000000003 1.2  70.80000000000003-4.05Q 65.60000000000002-9.3  65.60000000000002-19.1ZM 74.10000000000002-27.9L 74.10000000000002-27.9L 99.60000000000002-27.9Q 99.80000000000003-29.1  99.95000000000002-30.3Q 100.10000000000002-31.5  100.10000000000002-32.9L 100.10000000000002-32.9Q 100.10000000000002-35  99.60000000000002-36.95Q 99.10000000000002-38.9  98.00000000000003-40.4Q 96.90000000000003-41.9  95.10000000000002-42.8Q 93.30000000000003-43.7  90.70000000000003-43.7L 90.70000000000003-43.7Q 88.00000000000003-43.7  85.45000000000003-42.6Q 82.90000000000003-41.5  80.70000000000003-39.4Q 78.50000000000003-37.3  76.75000000000003-34.4Q 75.00000000000003-31.5  74.10000000000002-27.9ZM 128.30000000000004 0L 119.10000000000005 0L 115.60000000000005-48.6L 123.20000000000005-48.6L 124.80000000000005-20Q 124.90000000000005-16.5  124.95000000000005-13.15Q 125.00000000000006-9.8  125.10000000000005-6.4L 125.10000000000005-6.4L 125.50000000000006-6.4Q 127.00000000000006-9.8  128.35000000000005-13.15Q 129.70000000000005-16.5  131.30000000000004-20L 131.30000000000004-20L 144.10000000000005-48.6L 151.60000000000005-48.6L 153.30000000000007-20Q 153.50000000000006-16.5  153.55000000000007-13.15Q 153.60000000000005-9.8  153.80000000000007-6.4L 153.80000000000007-6.4L 154.20000000000005-6.4Q 155.60000000000005-9.8  156.90000000000003-13.15Q 158.20000000000005-16.5  159.80000000000007-20L 159.80000000000007-20L 172.50000000000006-48.6L 179.70000000000005-48.6L 157.60000000000005 0L 148.10000000000005 0L 146.70000000000005-26.6Q 146.60000000000005-30.1  146.55000000000007-33.7Q 146.50000000000006-37.3  146.40000000000003-40.9L 146.40000000000003-40.9L 146.00000000000006-40.9Q 144.50000000000006-37.3  143.05000000000007-33.7Q 141.60000000000005-30.1  140.10000000000005-26.6L 140.10000000000005-26.6L 128.30000000000004 0ZM 195.60000000000002 1.2L 195.60000000000002 1.2Q 193.20000000000002 1.2  190.75 0.5Q 188.3-0.2  186.05-1.45Q 183.8-2.7  181.95000000000002-4.4Q 180.10000000000002-6.1 178.9-8L 178.9-8L 183.70000000000002-11.8Q 186-8.6  189.20000000000002-6.65Q 192.4-4.7  196.20000000000002-4.7L 196.20000000000002-4.7Q 198.3-4.7  200.15-5.35Q 202-6  203.45000000000002-7.1Q 204.9-8.2  205.70000000000002-9.65Q 206.5-11.1  206.5-12.8L 206.5-12.8Q 206.5-14.1  206.05-15.2Q 205.60000000000002-16.3  204.60000000000002-17.35Q 203.60000000000002-18.4  201.85000000000002-19.5Q 200.10000000000002-20.6  197.60000000000002-22L 197.60000000000002-22Q 191.9-25.1  189.20000000000002-28.1Q 186.5-31.1  186.5-35.3L 186.5-35.3Q 186.5-38.5  187.85000000000002-41.2Q 189.20000000000002-43.9  191.45000000000002-45.8Q 193.70000000000002-47.7  196.75-48.75Q 199.8-49.8  203.20000000000002-49.8L 203.20000000000002-49.8Q 207.70000000000002-49.8  211.25-48Q 214.8-46.2  217.5-43.3L 217.5-43.3L 213.10000000000002-39Q 211.10000000000002-41  208.70000000000002-42.4Q 206.3-43.8  203-43.8L 203-43.8Q 199.10000000000002-43.8  196.45000000000002-41.55Q 193.8-39.3  193.8-36.2L 193.8-36.2Q 193.8-34.7  194.5-33.5Q 195.20000000000002-32.3  196.4-31.3Q 197.60000000000002-30.3  199.15-29.4Q 200.70000000000002-28.5  202.4-27.6L 202.4-27.6Q 205.70000000000002-25.8  207.85000000000002-24.15Q 210-22.5  211.35000000000002-20.85Q 212.70000000000002-19.2  213.25-17.5Q 213.8-15.8  213.8-13.8L 213.8-13.8Q 213.8-10.4  212.45000000000002-7.6Q 211.10000000000002-4.8  208.65-2.85Q 206.20000000000002-0.9  202.85000000000002 0.15Q 199.5 1.2  195.60000000000002 1.2Z" data-textpath="News" data-text-anchor="middle" data-font-size="100" data-letterspacing="0" data-side="left" data-offset="0.5" data-dx="0" data-dy="0" data-xmlspace="preserve" data-href="" data-font="Source Sans Pro" data-font-src="/Content/clientfonts/sourcesanspro-italic.woff" data-font-scale="contain" transform="translate(0,0)" data-x="0" data-y="0" fill="url('#linearGradientSkbwvy8ue17')"></path>
        </g>
      </svg>
    </g>
  </g>
</svg>