<?xml version="1.0" standalone="no"?>
<!DOCTYPE svg PUBLIC "-//W3C//DTD SVG 20010904//EN"
 "http://www.w3.org/TR/2001/REC-SVG-20010904/DTD/svg10.dtd">
<svg version="1.0" xmlns="http://www.w3.org/2000/svg"
 width="474.000000pt" height="474.000000pt" viewBox="0 0 474.000000 474.000000"
 preserveAspectRatio="xMidYMid meet">
<metadata>
Created by potrace 1.11, written by Peter Selinger 2001-2013
</metadata>
<g transform="translate(0.000000,474.000000) scale(0.100000,-0.100000)"
fill="#000000" stroke="none">
<path d="M2274 4656 c-74 -78 -86 -92 -179 -201 -33 -38 -63 -72 -66 -75 -17
-15 -161 -214 -195 -270 -45 -73 -94 -174 -94 -193 0 -7 -4 -17 -9 -22 -11
-12 -48 -153 -58 -220 -12 -83 -9 -246 7 -300 18 -67 55 -134 147 -268 78
-115 118 -192 129 -249 41 -225 -178 -511 -358 -465 -55 14 -141 97 -158 153
-8 23 -14 112 -15 214 -3 131 -7 188 -20 225 -38 115 -156 307 -326 536 -51
68 -96 126 -99 129 -3 3 -33 38 -66 79 -32 41 -67 83 -77 95 -9 11 4 -28 29
-89 55 -133 106 -286 127 -379 16 -69 17 -211 3 -270 -19 -78 -76 -201 -172
-368 -188 -326 -207 -385 -208 -618 0 -110 5 -180 17 -240 19 -92 52 -199 74
-242 l14 -28 544 0 c300 0 546 -3 546 -7 1 -5 3 -21 4 -38 1 -16 4 -43 6 -60
l4 -30 -425 0 c-405 -1 -428 -2 -459 -20 -66 -39 -91 -137 -51 -202 30 -50 65
-68 139 -70 36 -1 73 -2 83 -2 15 -1 27 -34 43 -119 2 -13 6 -31 9 -40 3 -9 7
-28 10 -42 7 -35 97 -432 102 -448 3 -9 239 -12 1137 -12 l1135 0 6 33 c26
139 142 614 152 623 7 6 34 9 59 7 64 -5 116 11 150 47 23 24 29 41 33 87 3
49 0 64 -20 93 -44 65 -34 64 -550 64 -340 0 -468 3 -468 11 0 7 5 37 11 67
l11 55 589 0 c324 -1 591 2 595 5 13 13 16 170 5 246 -16 107 -49 209 -106
323 -47 92 -184 309 -196 309 -3 0 -9 -30 -13 -67 -9 -91 -43 -220 -68 -263
-62 -104 -174 -150 -287 -116 -118 35 -213 116 -228 194 -18 103 -3 195 81
467 56 184 81 275 91 332 54 315 -4 525 -199 718 -45 44 -101 96 -125 115 -24
19 -59 48 -78 64 -54 46 -337 255 -340 252 -2 -2 10 -50 26 -107 16 -57 32
-117 35 -134 4 -16 9 -41 12 -55 12 -46 13 -244 3 -300 -28 -150 -124 -198
-263 -131 -188 91 -308 319 -308 586 0 139 68 408 161 633 16 39 29 72 27 72
-2 0 -34 -33 -72 -74z m-5 -3083 c-8 -10 -16 -20 -20 -23 -3 -3 -20 -26 -38
-52 -39 -54 -53 -55 -41 -2 18 80 29 94 72 94 37 0 39 -1 27 -17z m497 9 c-3
-5 -44 -35 -92 -67 l-86 -59 -91 -2 -90 -1 34 31 c19 17 54 48 79 68 l45 38
103 0 c57 0 101 -4 98 -8z"/>
<path d="M1460 372 c0 -4 105 -155 122 -177 5 -5 37 -51 72 -101 l64 -90 731
0 731 1 17 25 c9 14 21 30 26 35 36 44 214 301 211 304 -5 5 -1974 8 -1974 3z"/>
</g>
</svg>
